# xmcd CD database file
#
# Track frame offsets:
#	150
#	19300
#	40898
#	60010
#
# Disc length: 1084 seconds
#
# Revision: 0
# Processed by: cddbd v1.4PL0 Copyright (c) Steve Scherf et al.
# Submitted via: CD2WAV32(EN) R3.19
#
DISCID=26043a04
DTITLE=ITOU Masumi - Melody
DYEAR=1900
DGENRE=
TTITLE0=Melody
TTITLE1=Shining Star
TTITLE2=Melody Oke
TTITLE3=Shining Star Oke
EXTD=
EXTT0=
EXTT1=
EXTT2=
EXTT3=
PLAYORDER=
